Newsreader16pt-SemiBold.ufo
<glyph name="exclam" format="2">
  <advance width="542.44"/>
  <unicode hex="0021"/>
  <outline>
    <contour>
      <point x="412.96" y="1277.448" type="line" smooth="yes"/>
      <point x="413.536" y="1335.976"/>
      <point x="342.704" y="1364.24"/>
      <point x="271.872" y="1364.24" type="curve" smooth="yes"/>
      <point x="201.04" y="1364.24"/>
      <point x="130.208" y="1335.976"/>
      <point x="130.784" y="1277.448" type="curve" smooth="yes"/>
      <point x="133.088" y="1176.048" type="line" smooth="yes"/>
      <point x="134.816" y="1065.64"/>
      <point x="177.84" y="854.848"/>
      <point x="239.328" y="440.944" type="curve"/>
      <point x="304.416" y="440.944" type="line"/>
      <point x="365.904" y="854.848"/>
      <point x="408.928" y="1065.64"/>
      <point x="410.656" y="1176.048" type="curve" smooth="yes"/>
    </contour>
    <contour>
      <point x="271.568" y="277.0" type="curve" smooth="yes"/>
      <point x="184.184" y="277.0"/>
      <point x="120.888" y="211.28"/>
      <point x="120.888" y="129.59199999999998" type="curve" smooth="yes"/>
      <point x="120.888" y="47.480000000000004"/>
      <point x="184.184" y="-18.240000000000002"/>
      <point x="271.568" y="-18.240000000000002" type="curve" smooth="yes"/>
      <point x="358.952" y="-18.240000000000002"/>
      <point x="422.248" y="47.480000000000004"/>
      <point x="422.248" y="129.59199999999998" type="curve" smooth="yes"/>
      <point x="422.248" y="211.28"/>
      <point x="358.952" y="277.0"/>
    </contour>
  </outline>
</glyph>
<glyph name="ampersand" format="2">
  <advance width="1438.336"/>
  <unicode hex="0026"/>
  <outline>
    <contour>
      <point x="622.632" y="752.344" type="line"/>
      <point x="872.752" y="869.784"/>
      <point x="950.024" y="977.76"/>
      <point x="950.024" y="1106.088" type="curve" smooth="yes"/>
      <point x="950.024" y="1247.088"/>
      <point x="841.664" y="1364.24"/>
      <point x="622.312" y="1364.24" type="curve" smooth="yes"/>
      <point x="377.64" y="1364.24"/>
      <point x="242.008" y="1231.736"/>
      <point x="242.008" y="1049.952" type="curve" smooth="yes"/>
      <point x="242.008" y="954.952"/>
      <point x="278.432" y="865.32"/>
      <point x="394.928" y="730.368" type="curve" smooth="yes"/>
      <point x="1023.448" y="0.0" type="line"/>
      <point x="1422.12" y="0.0" type="line"/>
      <point x="1422.12" y="42.936" type="line"/>
      <point x="1249.744" y="101.936" type="line"/>
      <point x="582.3199999999999" y="862.12" type="line" smooth="yes"/>
      <point x="484.808" y="973.056"/>
      <point x="452.144" y="1034.416"/>
      <point x="452.144" y="1116.416" type="curve" smooth="yes"/>
      <point x="452.144" y="1216.728"/>
      <point x="515.88" y="1269.824"/>
      <point x="608.224" y="1269.824" type="curve" smooth="yes"/>
      <point x="709.448" y="1269.824"/>
      <point x="757.848" y="1205.696"/>
      <point x="757.848" y="1093.816" type="curve" smooth="yes"/>
      <point x="757.848" y="988.144"/>
      <point x="711.688" y="901.776"/>
      <point x="574.728" y="814.104" type="curve"/>
      <point x="460.16" y="750.672" type="line"/>
      <point x="186.288" y="638.208"/>
      <point x="92.712" y="495.088"/>
      <point x="92.712" y="326.88" type="curve" smooth="yes"/>
      <point x="92.712" y="125.76"/>
      <point x="224.864" y="-24.240000000000002"/>
      <point x="494.272" y="-24.240000000000002" type="curve" smooth="yes"/>
      <point x="672.296" y="-24.240000000000002"/>
      <point x="824.656" y="39.032"/>
      <point x="959.504" y="198.68" type="curve"/>
      <point x="995.344" y="231.496" type="line"/>
      <point x="1082.248" y="344.92"/>
      <point x="1158.944" y="494.56"/>
      <point x="1241.968" y="722.912" type="curve"/>
      <point x="1389.736" y="770.912" type="line"/>
      <point x="1389.736" y="813.0" type="line"/>
      <point x="932.176" y="813.0" type="line"/>
      <point x="932.176" y="770.912" type="line"/>
      <point x="1073.728" y="722.912" type="line"/>
      <point x="1037.448" y="540.128"/>
      <point x="993.32" y="412.096"/>
      <point x="938.952" y="325.696" type="curve"/>
      <point x="897.992" y="278.672" type="line"/>
      <point x="812.376" y="169.744"/>
      <point x="711.488" y="126.8"/>
      <point x="600.936" y="126.8" type="curve" smooth="yes"/>
      <point x="423.608" y="126.8"/>
      <point x="320.88" y="228.096"/>
      <point x="320.88" y="401.368" type="curve" smooth="yes"/>
      <point x="320.88" y="521.624"/>
      <point x="370.04" y="612.72"/>
      <point x="496.432" y="690.88" type="curve"/>
    </contour>
  </outline>
</glyph>
<glyph name="asterisk" format="2">
  <advance width="847.976"/>
  <unicode hex="002A"/>
  <outline>
    <contour>
      <point x="585.608" y="718.696" type="line"/>
      <point x="514.304" y="965.184" type="line"/>
      <point x="767.368" y="1014.032" type="line"/>
      <point x="761.672" y="1081.208" type="line"/>
      <point x="504.456" y="1088.784" type="line"/>
      <point x="538.184" y="1344.848" type="line"/>
      <point x="473.432" y="1359.968" type="line"/>
      <point x="385.704" y="1118.328" type="line"/>
      <point x="152.792" y="1228.936" type="line"/>
      <point x="117.55199999999999" y="1172.032" type="line"/>
      <point x="320.192" y="1013.424" type="line"/>
      <point x="143.008" y="826.664" type="line"/>
      <point x="186.216" y="775.456" type="line"/>
      <point x="399.976" y="918.368" type="line"/>
      <point x="523.28" y="691.88" type="line"/>
    </contour>
  </outline>
</glyph>
<glyph name="semicolon" format="2">
  <advance width="534.264"/>
  <unicode hex="003B"/>
  <outline>
    <contour>
      <point x="93.608" y="-303.816" type="curve"/>
      <point x="151.936" y="-363.296" type="line"/>
      <point x="365.072" y="-180.552"/>
      <point x="426.408" y="-46.135999999999996"/>
      <point x="426.408" y="94.376" type="curve" smooth="yes"/>
      <point x="426.408" y="210.51999999999998"/>
      <point x="363.592" y="276.424"/>
      <point x="268.816" y="276.424" type="curve" smooth="yes"/>
      <point x="176.824" y="276.424"/>
      <point x="116.408" y="210.128"/>
      <point x="116.408" y="124.408" type="curve" smooth="yes"/>
      <point x="116.408" y="66.712"/>
      <point x="261.552" y="45.872"/>
      <point x="261.552" y="-50.784" type="curve" smooth="yes"/>
      <point x="261.552" y="-115.968"/>
      <point x="213.336" y="-200.728"/>
    </contour>
    <contour>
      <point x="259.6" y="876.992" type="curve" smooth="yes"/>
      <point x="172.216" y="876.992"/>
      <point x="108.92" y="811.272"/>
      <point x="108.92" y="729.584" type="curve" smooth="yes"/>
      <point x="108.92" y="647.472"/>
      <point x="172.216" y="581.752"/>
      <point x="259.6" y="581.752" type="curve" smooth="yes"/>
      <point x="346.984" y="581.752"/>
      <point x="410.28" y="647.472"/>
      <point x="410.28" y="729.584" type="curve" smooth="yes"/>
      <point x="410.28" y="811.272"/>
      <point x="346.984" y="876.992"/>
    </contour>
  </outline>
</glyph>
<glyph name="less" format="2">
  <advance width="1000.0"/>
  <unicode hex="003C"/>
  <outline>
    <contour>
      <point x="136.152" y="407.072" type="line"/>
      <point x="943.152" y="770.984" type="line"/>
      <point x="943.152" y="894.968" type="line"/>
      <point x="43.152" y="481.056" type="line"/>
      <point x="43.152" y="390.944" type="line"/>
      <point x="943.152" y="-22.968" type="line"/>
      <point x="943.152" y="101.01599999999999" type="line"/>
      <point x="136.152" y="464.928" type="line"/>
    </contour>
  </outline>
</glyph>
<glyph name="A" format="2">
  <advance width="1457.68"/>
  <unicode hex="0041"/>
  <anchor x="713.224" y="1340.0" name="UCtop"/>
  <anchor x="1360.16" y="0.0" name="right"/>
  <anchor x="709.928" y="0.0" name="bottom"/>
  <outline>
    <contour>
      <point x="344.64" y="464.112" type="line"/>
      <point x="1017.088" y="464.112" type="line"/>
      <point x="1017.088" y="573.344" type="line"/>
      <point x="344.64" y="573.344" type="line"/>
    </contour>
    <contour>
      <point x="1331.888" y="100.632" type="line"/>
      <point x="793.616" y="1351.52" type="line"/>
      <point x="649.096" y="1351.52" type="line"/>
      <point x="132.64" y="98.632" type="line"/>
      <point x="-20.36" y="41.968" type="line"/>
      <point x="-20.36" y="0.0" type="line"/>
      <point x="417.328" y="0.0" type="line"/>
      <point x="417.328" y="41.968" type="line"/>
      <point x="259.416" y="98.632" type="line"/>
      <point x="670.792" y="1136.064" type="line"/>
      <point x="620.328" y="1136.064" type="line"/>
      <point x="1056.888" y="98.632" type="line"/>
      <point x="888.976" y="41.968" type="line"/>
      <point x="888.976" y="0.0" type="line"/>
      <point x="1479.888" y="0.0" type="line"/>
      <point x="1479.888" y="41.968" type="line"/>
    </contour>
  </outline>
</glyph>
<glyph name="U" format="2">
  <advance width="1526.832"/>
  <unicode hex="0055"/>
  <anchor x="812.888" y="1340.0" name="UCtop"/>
  <anchor x="1024.592" y="0.0" name="right"/>
  <anchor x="812.888" y="0.0" name="bottom"/>
  <anchor x="1299.776" y="1340.0" name="horn"/>
  <outline>
    <contour>
      <point x="1222.768" y="517.832" type="line" smooth="yes"/>
      <point x="1222.768" y="275.92"/>
      <point x="1081.736" y="145.248"/>
      <point x="833.152" y="145.248" type="curve" smooth="yes"/>
      <point x="577.5360000000001" y="145.248"/>
      <point x="450.01599999999996" y="276.496"/>
      <point x="450.01599999999996" y="541.208" type="curve" smooth="yes"/>
      <point x="450.01599999999996" y="1241.792" type="line"/>
      <point x="599.5360000000001" y="1298.032" type="line"/>
      <point x="599.5360000000001" y="1340.0" type="line"/>
      <point x="42.976" y="1340.0" type="line"/>
      <point x="42.976" y="1298.032" type="line"/>
      <point x="192.496" y="1241.792" type="line"/>
      <point x="192.496" y="544.696" type="line" smooth="yes"/>
      <point x="192.496" y="166.64"/>
      <point x="397.672" y="-24.240000000000002"/>
      <point x="779.2" y="-24.240000000000002" type="curve" smooth="yes"/>
      <point x="1135.976" y="-24.240000000000002"/>
      <point x="1333.184" y="169.456"/>
      <point x="1333.184" y="529.352" type="curve" smooth="yes"/>
      <point x="1333.184" y="1241.792" type="line"/>
      <point x="1482.704" y="1298.032" type="line"/>
      <point x="1482.704" y="1340.0" type="line"/>
      <point x="1066.04" y="1340.0" type="line"/>
      <point x="1066.04" y="1298.032" type="line"/>
      <point x="1222.768" y="1241.792" type="line"/>
    </contour>
  </outline>
</glyph>
<glyph name="h" format="2">
  <advance width="1122.184"/>
  <unicode hex="0068"/>
  <anchor x="574.984" y="1373.984" name="UCtop"/>
  <anchor x="569.832" y="0.0" name="bottom"/>
  <anchor x="319.072" y="1074.544" name="center"/>
  <outline>
    <contour>
      <point x="616.416" y="39.12" type="line"/>
      <point x="616.416" y="0.0" type="line"/>
      <point x="1106.184" y="0.0" type="line"/>
      <point x="1106.184" y="39.12" type="line"/>
      <point x="971.688" y="90.088" type="line"/>
      <point x="971.688" y="557.48" type="line" smooth="yes"/>
      <point x="971.688" y="781.48"/>
      <point x="890.448" y="884.72"/>
      <point x="719.696" y="884.72" type="curve" smooth="yes"/>
      <point x="587.024" y="884.72"/>
      <point x="487.536" y="841.32"/>
      <point x="328.304" y="668.12" type="curve"/>
      <point x="368.576" y="629.76" type="line"/>
      <point x="405.544" y="672.312"/>
      <point x="485.616" y="705.168"/>
      <point x="575.08" y="705.168" type="curve" smooth="yes"/>
      <point x="684.304" y="705.168"/>
      <point x="740.04" y="653.976"/>
      <point x="740.04" y="558.424" type="curve" smooth="yes"/>
      <point x="740.04" y="85.848" type="line"/>
    </contour>
    <contour>
      <point x="525.096" y="0.0" type="line"/>
      <point x="525.096" y="39.12" type="line"/>
      <point x="390.872" y="90.088" type="line"/>
      <point x="390.872" y="1228.048" type="line"/>
      <point x="405.96" y="1423.24" type="line"/>
      <point x="377.904" y="1423.24" type="line"/>
      <point x="6.920000000000002" y="1320.16" type="line"/>
      <point x="6.920000000000002" y="1284.472" type="line"/>
      <point x="84.92" y="1249.776"/>
      <point x="129.40800000000002" y="1219.32"/>
      <point x="159.224" y="1181.96" type="curve"/>
      <point x="159.224" y="90.088" type="line"/>
      <point x="26.728" y="39.12" type="line"/>
      <point x="26.728" y="0.0" type="line"/>
    </contour>
  </outline>
</glyph>
<glyph name="q" format="2">
  <advance width="1085.128"/>
  <unicode hex="0071"/>
  <anchor x="557.44" y="860.48" name="top"/>
  <anchor x="836.72" y="-505.76" name="bottom"/>
  <outline>
    <contour>
      <point x="312.84000000000003" y="446.112" type="curve" smooth="yes"/>
      <point x="312.84000000000003" y="674.016"/>
      <point x="395.728" y="789.424"/>
      <point x="533.352" y="789.424" type="curve" smooth="yes"/>
      <point x="653.248" y="789.424"/>
      <point x="723.2" y="708.392"/>
      <point x="723.2" y="601.512" type="curve" smooth="yes"/>
      <point x="723.2" y="-412.28" type="line"/>
      <point x="570.584" y="-466.64" type="line"/>
      <point x="570.584" y="-505.76" type="line"/>
      <point x="1087.344" y="-505.76" type="line"/>
      <point x="1087.344" y="-466.64" type="line"/>
      <point x="954.848" y="-415.672" type="line"/>
      <point x="954.848" y="656.328" type="line"/>
      <point x="982.36" y="865.328" type="line"/>
      <point x="946.968" y="882.416" type="line"/>
      <point x="773.008" y="808.568" type="line"/>
      <point x="877.584" y="807.72" type="line"/>
      <point x="754.56" y="862.72"/>
      <point x="665.592" y="884.72"/>
      <point x="567.024" y="884.72" type="curve" smooth="yes"/>
      <point x="286.208" y="884.72"/>
      <point x="64.976" y="695.504"/>
      <point x="64.976" y="386.24" type="curve" smooth="yes"/>
      <point x="64.976" y="144.152"/>
      <point x="196.432" y="-24.240000000000002"/>
      <point x="444.464" y="-24.240000000000002" type="curve" smooth="yes"/>
      <point x="535.136" y="-24.240000000000002"/>
      <point x="637.416" y="12.096"/>
      <point x="778.872" y="99.944" type="curve"/>
      <point x="778.872" y="183.24" type="line"/>
      <point x="714.864" y="135.808"/>
      <point x="634.248" y="114.288"/>
      <point x="548.32" y="114.288" type="curve" smooth="yes"/>
      <point x="406.912" y="114.288"/>
      <point x="312.84000000000003" y="225.688"/>
    </contour>
  </outline>
</glyph>
<glyph name="u" format="2">
  <advance width="1087.024"/>
  <unicode hex="0075"/>
  <anchor x="519.2" y="860.48" name="top"/>
  <anchor x="965.736" y="0.0" name="right"/>
  <anchor x="542.592" y="0.0" name="bottom"/>
  <anchor x="826.928" y="858.752" name="horn"/>
  <outline>
    <contour>
      <point x="383.688" y="291.752" type="curve" smooth="yes"/>
      <point x="383.688" y="751.336" type="line"/>
      <point x="395.23199999999997" y="877.6" type="line"/>
      <point x="20.64" y="850.88" type="line"/>
      <point x="20.64" y="804.672" type="line"/>
      <point x="152.464" y="742.552" type="line"/>
      <point x="152.464" y="288.968" type="line" smooth="yes"/>
      <point x="152.464" y="79.456"/>
      <point x="230.704" y="-24.240000000000002"/>
      <point x="398.336" y="-24.240000000000002" type="curve" smooth="yes"/>
      <point x="523.976" y="-24.240000000000002"/>
      <point x="612.976" y="16.432000000000002"/>
      <point x="765.632" y="181.904" type="curve"/>
      <point x="726.36" y="224.992" type="line"/>
      <point x="691.088" y="183.864"/>
      <point x="614.592" y="155.888"/>
      <point x="536.04" y="155.888" type="curve" smooth="yes"/>
      <point x="421.872" y="155.888"/>
      <point x="383.688" y="190.10399999999998"/>
    </contour>
    <contour>
      <point x="716.912" y="-17.696" type="line"/>
      <point x="744.968" y="-17.696" type="line"/>
      <point x="1058.168" y="50.272" type="line"/>
      <point x="1058.168" y="85.784" type="line"/>
      <point x="1009.384" y="99.416"/>
      <point x="958.136" y="127.144"/>
      <point x="929.472" y="158.232" type="curve"/>
      <point x="929.472" y="747.096" type="line"/>
      <point x="943.288" y="877.6" type="line"/>
      <point x="577.72" y="850.88" type="line"/>
      <point x="577.72" y="804.672" type="line"/>
      <point x="697.248" y="746.792" type="line"/>
      <point x="697.248" y="177.448" type="line"/>
    </contour>
  </outline>
</glyph>
<glyph name="w" format="2">
  <advance width="1499.232"/>
  <unicode hex="0077"/>
  <anchor x="794.0" y="860.48" name="top"/>
  <anchor x="794.0" y="0.0" name="bottom"/>
  <outline>
    <contour>
      <point x="1279.6" y="780.056" type="line"/>
      <point x="1113.136" y="189.07999999999998" type="line"/>
      <point x="1162.008" y="189.07999999999998" type="line"/>
      <point x="882.784" y="872.0" type="line"/>
      <point x="759.744" y="872.0" type="line"/>
      <point x="491.064" y="189.928" type="line"/>
      <point x="539.088" y="189.928" type="line"/>
      <point x="354.776" y="775.904" type="line"/>
      <point x="472.904" y="815.784" type="line"/>
      <point x="472.904" y="860.48" type="line"/>
      <point x="-5.6" y="860.48" type="line"/>
      <point x="-5.6" y="816.632" type="line"/>
      <point x="115.008" y="767.512" type="line"/>
      <point x="373.648" y="-11.52" type="line"/>
      <point x="500.936" y="-11.52" type="line"/>
      <point x="779.792" y="680.968" type="line"/>
      <point x="723.288" y="658.92" type="line"/>
      <point x="1007.568" y="-11.52" type="line"/>
      <point x="1134.856" y="-11.52" type="line"/>
      <point x="1383.224" y="778.784" type="line"/>
      <point x="1484.288" y="815.784" type="line"/>
      <point x="1484.288" y="860.48" type="line"/>
      <point x="1164.016" y="860.48" type="line"/>
      <point x="1164.016" y="815.784" type="line"/>
    </contour>
  </outline>
</glyph>
<glyph name="bar" format="2">
  <advance width="464.496"/>
  <unicode hex="007C"/>
  <outline>
    <contour>
      <point x="174.008" y="-530.0" type="line"/>
      <point x="290.488" y="-530.0" type="line"/>
      <point x="290.488" y="1470.0" type="line"/>
      <point x="174.008" y="1470.0" type="line"/>
    </contour>
  </outline>
</glyph>
<glyph name="asciitilde" format="2">
  <advance width="1000.0"/>
  <unicode hex="007E"/>
  <outline>
    <contour>
      <point x="128.856" y="322.28" type="curve"/>
      <point x="241.448" y="322.28" type="line"/>
      <point x="245.6" y="414.064"/>
      <point x="272.904" y="448.28"/>
      <point x="343.576" y="448.28" type="curve" smooth="yes"/>
      <point x="446.096" y="448.28"/>
      <point x="508.576" y="315.28"/>
      <point x="662.576" y="315.28" type="curve" smooth="yes"/>
      <point x="786.352" y="315.28"/>
      <point x="871.144" y="375.544"/>
      <point x="872.296" y="549.72" type="curve"/>
      <point x="759.704" y="549.72" type="line"/>
      <point x="755.552" y="457.936"/>
      <point x="728.248" y="423.72"/>
      <point x="657.576" y="423.72" type="curve" smooth="yes"/>
      <point x="555.056" y="423.72"/>
      <point x="492.576" y="556.72"/>
      <point x="338.576" y="556.72" type="curve" smooth="yes"/>
      <point x="214.8" y="556.72"/>
      <point x="130.008" y="496.456"/>
    </contour>
  </outline>
</glyph>
<glyph name="brokenbar" format="2">
  <advance width="464.496"/>
  <unicode hex="00A6"/>
  <outline>
    <contour>
      <point x="290.488" y="687.56" type="line"/>
      <point x="290.488" y="1470.0" type="line"/>
      <point x="174.008" y="1470.0" type="line"/>
      <point x="174.008" y="687.56" type="line"/>
    </contour>
    <contour>
      <point x="174.008" y="-530.0" type="line"/>
      <point x="290.488" y="-530.0" type="line"/>
      <point x="290.488" y="307.56" type="line"/>
      <point x="174.008" y="307.56" type="line"/>
    </contour>
  </outline>
</glyph>
<glyph name="logicalnot" format="2">
  <advance width="1000.0"/>
  <unicode hex="00AC"/>
  <outline>
    <contour>
      <point x="125.584" y="660.72" type="line"/>
      <point x="125.584" y="551.28" type="line"/>
      <point x="865.024" y="551.28" type="line"/>
      <point x="865.024" y="660.72" type="line"/>
    </contour>
    <contour>
      <point x="865.024" y="615.72" type="line"/>
      <point x="755.584" y="615.72" type="line"/>
      <point x="755.584" y="211.28" type="line"/>
      <point x="865.024" y="211.28" type="line"/>
    </contour>
  </outline>
</glyph>
<glyph name="multiply" format="2">
  <advance width="1000.0"/>
  <unicode hex="00D7"/>
  <outline>
    <contour>
      <point x="170.192" y="183.0" type="line"/>
      <point x="247.0" y="106.19200000000001" type="line"/>
      <point x="829.808" y="689.0" type="line"/>
      <point x="753.0" y="765.808" type="line"/>
    </contour>
    <contour>
      <point x="170.192" y="689.0" type="line"/>
      <point x="753.0" y="106.19200000000001" type="line"/>
      <point x="829.808" y="183.0" type="line"/>
      <point x="247.0" y="765.808" type="line"/>
    </contour>
  </outline>
</glyph>
<glyph name="eogonek" format="2">
  <advance width="916.736"/>
  <unicode hex="0119"/>
  <outline>
    <contour>
      <point x="859.216" y="181.928" type="line"/>
      <point x="827.856" y="223.344" type="line"/>
      <point x="755.04" y="167.888"/>
      <point x="685.856" y="143.248"/>
      <point x="605.768" y="143.248" type="curve" smooth="yes"/>
      <point x="413.032" y="143.248"/>
      <point x="284.632" y="269.528"/>
      <point x="284.632" y="484.744" type="curve" smooth="yes"/>
      <point x="284.632" y="707.072"/>
      <point x="362.096" y="794.696"/>
      <point x="470.448" y="794.696" type="curve" smooth="yes"/>
      <point x="570.064" y="794.696"/>
      <point x="617.28" y="703.752"/>
      <point x="627.04" y="545.912" type="curve"/>
      <point x="736.592" y="595.968" type="line"/>
      <point x="231.496" y="569.424" type="line"/>
      <point x="230.344" y="490.976" type="line"/>
      <point x="854.64" y="490.976" type="line"/>
      <point x="832.792" y="739.0"/>
      <point x="708.704" y="884.72"/>
      <point x="490.96" y="884.72" type="curve" smooth="yes"/>
      <point x="218.216" y="884.72"/>
      <point x="63.552" y="671.784"/>
      <point x="63.552" y="416.968" type="curve" smooth="yes"/>
      <point x="63.552" y="165.272"/>
      <point x="234.672" y="-24.240000000000002"/>
      <point x="487.024" y="-24.240000000000002" type="curve" smooth="yes"/>
      <point x="576.08" y="-24.240000000000002"/>
      <point x="653.136" y="3.968"/>
      <point x="723.496" y="53.480000000000004" type="curve"/>
      <point x="711.072" y="68.176" type="line"/>
      <point x="603.056" y="-67.78399999999999" type="line" smooth="yes"/>
      <point x="499.432" y="-197.072"/>
      <point x="464.104" y="-276.824"/>
      <point x="464.104" y="-361.0" type="curve" smooth="yes"/>
      <point x="464.104" y="-461.488"/>
      <point x="531.168" y="-530.0"/>
      <point x="642.584" y="-530.0" type="curve" smooth="yes"/>
      <point x="735.4" y="-530.0"/>
      <point x="808.4" y="-488.24"/>
      <point x="891.608" y="-377.632" type="curve"/>
      <point x="857.096" y="-338.184" type="line"/>
      <point x="798.0" y="-394.344"/>
      <point x="757.12" y="-412.192"/>
      <point x="714.12" y="-412.192" type="curve" smooth="yes"/>
      <point x="646.88" y="-412.192"/>
      <point x="602.304" y="-371.648"/>
      <point x="602.304" y="-301.528" type="curve" smooth="yes"/>
      <point x="602.304" y="-245.92000000000002"/>
      <point x="617.216" y="-175.528"/>
      <point x="717.504" y="-27.792" type="curve" smooth="yes"/>
    </contour>
  </outline>
</glyph>
<glyph name="Uogonek" format="2">
  <advance width="1526.832"/>
  <unicode hex="0172"/>
  <outline>
    <contour>
      <point x="1222.768" y="517.832" type="line" smooth="yes"/>
      <point x="1222.768" y="275.92"/>
      <point x="1081.736" y="145.248"/>
      <point x="833.152" y="145.248" type="curve" smooth="yes"/>
      <point x="577.5360000000001" y="145.248"/>
      <point x="450.01599999999996" y="276.496"/>
      <point x="450.01599999999996" y="541.208" type="curve" smooth="yes"/>
      <point x="450.01599999999996" y="1241.792" type="line"/>
      <point x="599.5360000000001" y="1298.032" type="line"/>
      <point x="599.5360000000001" y="1340.0" type="line"/>
      <point x="42.976" y="1340.0" type="line"/>
      <point x="42.976" y="1298.032" type="line"/>
      <point x="192.496" y="1241.792" type="line"/>
      <point x="192.496" y="544.696" type="line" smooth="yes"/>
      <point x="192.496" y="166.64"/>
      <point x="397.672" y="-24.240000000000002"/>
      <point x="779.2" y="-24.240000000000002" type="curve" smooth="yes"/>
      <point x="1135.976" y="-24.240000000000002"/>
      <point x="1333.184" y="169.456"/>
      <point x="1333.184" y="529.352" type="curve" smooth="yes"/>
      <point x="1333.184" y="1241.792" type="line"/>
      <point x="1482.704" y="1298.032" type="line"/>
      <point x="1482.704" y="1340.0" type="line"/>
      <point x="1066.04" y="1340.0" type="line"/>
      <point x="1066.04" y="1298.032" type="line"/>
      <point x="1222.768" y="1241.792" type="line"/>
    </contour>
    <contour>
      <point x="840.76" y="-91.024" type="curve" smooth="yes"/>
      <point x="912.8" y="46.0" type="line"/>
      <point x="846.656" y="46.0" type="line"/>
      <point x="748.616" y="-93.048" type="line" smooth="yes"/>
      <point x="649.872" y="-227.216"/>
      <point x="629.48" y="-291.488"/>
      <point x="629.48" y="-361.0" type="curve" smooth="yes"/>
      <point x="629.48" y="-461.488"/>
      <point x="696.544" y="-530.0"/>
      <point x="807.96" y="-530.0" type="curve" smooth="yes"/>
      <point x="900.776" y="-530.0"/>
      <point x="973.776" y="-488.24"/>
      <point x="1056.984" y="-377.632" type="curve"/>
      <point x="1022.472" y="-338.184" type="line"/>
      <point x="963.376" y="-394.344"/>
      <point x="922.496" y="-412.192"/>
      <point x="879.496" y="-412.192" type="curve" smooth="yes"/>
      <point x="812.256" y="-412.192"/>
      <point x="767.68" y="-371.648"/>
      <point x="767.68" y="-301.528" type="curve" smooth="yes"/>
      <point x="767.68" y="-251.10399999999998"/>
      <point x="782.376" y="-195.648"/>
    </contour>
  </outline>
</glyph>
<glyph name="uni032E" format="2">
  <unicode hex="032E"/>
  <anchor x="0.0" y="0.0" name="_bottom"/>
  <anchor x="0.0" y="-530.0" name="bottom"/>
  <outline>
    <contour>
      <point x="0.0" y="-279.584" type="curve" smooth="yes"/>
      <point x="-115.904" y="-279.584"/>
      <point x="-185.0" y="-220.248"/>
      <point x="-213.0" y="-89.0" type="curve"/>
      <point x="-289.688" y="-89.0" type="line"/>
      <point x="-242.656" y="-348.0"/>
      <point x="-164.72" y="-430.0"/>
      <point x="0.0" y="-430.0" type="curve" smooth="yes"/>
      <point x="164.72" y="-430.0"/>
      <point x="242.656" y="-348.0"/>
      <point x="289.688" y="-89.0" type="curve"/>
      <point x="213.0" y="-89.0" type="line"/>
      <point x="185.0" y="-220.248"/>
      <point x="115.904" y="-279.584"/>
    </contour>
  </outline>
</glyph>
<glyph name="dagger" format="2">
  <advance width="691.28"/>
  <unicode hex="2020"/>
  <outline>
    <contour>
      <point x="345.216" y="1192.056" type="line"/>
      <point x="95.64" y="1237.6" type="line"/>
      <point x="95.64" y="1081.52" type="line"/>
      <point x="345.216" y="1127.912" type="line"/>
      <point x="595.64" y="1081.52" type="line"/>
      <point x="595.64" y="1237.6" type="line"/>
    </contour>
    <contour>
      <point x="311.432" y="1159.272" type="line"/>
      <point x="263.888" y="891.024" type="line"/>
      <point x="329.856" y="651.0" type="line"/>
      <point x="361.0" y="651.0" type="line"/>
      <point x="427.392" y="891.024" type="line"/>
      <point x="377.152" y="1159.272" type="line"/>
      <point x="434.176" y="1399.0" type="line"/>
      <point x="257.104" y="1399.0" type="line"/>
    </contour>
  </outline>
</glyph>
<glyph name="daggerdbl" format="2">
  <advance width="731.888"/>
  <unicode hex="2021"/>
  <outline>
    <contour>
      <point x="365.52" y="1192.056" type="line"/>
      <point x="115.944" y="1237.6" type="line"/>
      <point x="115.944" y="1081.52" type="line"/>
      <point x="365.52" y="1127.912" type="line"/>
      <point x="615.944" y="1081.52" type="line"/>
      <point x="615.944" y="1237.6" type="line"/>
    </contour>
    <contour>
      <point x="437.576" y="1025.0" type="line"/>
      <point x="397.456" y="1159.272" type="line"/>
      <point x="454.48" y="1399.0" type="line"/>
      <point x="277.408" y="1399.0" type="line"/>
      <point x="331.736" y="1159.272" type="line"/>
      <point x="294.312" y="1025.0" type="line"/>
      <point x="331.736" y="890.728" type="line"/>
      <point x="277.408" y="651.0" type="line"/>
      <point x="454.48" y="651.0" type="line"/>
      <point x="397.456" y="890.728" type="line"/>
    </contour>
    <contour>
      <point x="365.52" y="857.944" type="line"/>
      <point x="615.944" y="812.4" type="line"/>
      <point x="615.944" y="968.48" type="line"/>
      <point x="365.52" y="922.088" type="line"/>
      <point x="115.944" y="968.48" type="line"/>
      <point x="115.944" y="812.4" type="line"/>
    </contour>
  </outline>
</glyph>
<glyph name="bullet" format="2">
  <advance width="815.152"/>
  <unicode hex="2022"/>
  <outline>
    <contour>
      <point x="407.576" y="692.416" type="curve" smooth="yes"/>
      <point x="257.64" y="692.416"/>
      <point x="148.976" y="579.752"/>
      <point x="148.976" y="440.24" type="curve" smooth="yes"/>
      <point x="148.976" y="300.728"/>
      <point x="257.64" y="188.064"/>
      <point x="407.576" y="188.064" type="curve" smooth="yes"/>
      <point x="557.512" y="188.064"/>
      <point x="666.176" y="300.728"/>
      <point x="666.176" y="440.24" type="curve" smooth="yes"/>
      <point x="666.176" y="579.752"/>
      <point x="557.512" y="692.416"/>
    </contour>
  </outline>
</glyph>
<glyph name="uni20A6" format="2">
  <advance width="1184.8"/>
  <unicode hex="20A6"/>
  <outline>
    <contour>
      <point x="1156.416" y="630.8" type="line"/>
      <point x="44.568" y="630.8" type="line"/>
      <point x="44.568" y="537.5360000000001" type="line"/>
      <point x="1156.416" y="537.5360000000001" type="line"/>
    </contour>
    <contour>
      <point x="1156.416" y="906.064" type="line"/>
      <point x="44.568" y="906.064" type="line"/>
      <point x="44.568" y="812.8" type="line"/>
      <point x="1156.416" y="812.8" type="line"/>
    </contour>
    <contour>
      <point x="945.4159999999999" y="314.79200000000003" type="line"/>
      <point x="475.512" y="1340.0" type="line"/>
      <point x="51.96" y="1340.0" type="line"/>
      <point x="51.96" y="1300.032" type="line"/>
      <point x="208.6" y="1239.544" type="line"/>
      <point x="208.6" y="90.088" type="line"/>
      <point x="54.84" y="39.968" type="line"/>
      <point x="54.84" y="0.0" type="line"/>
      <point x="458.752" y="0.0" type="line"/>
      <point x="458.752" y="39.968" type="line"/>
      <point x="297.504" y="90.088" type="line"/>
      <point x="297.504" y="1252.472" type="line"/>
      <point x="260.752" y="1249.904" type="line"/>
      <point x="845.328" y="-10.944" type="line"/>
      <point x="992.384" y="-10.944" type="line"/>
      <point x="992.384" y="1248.76" type="line"/>
      <point x="1146.144" y="1300.032" type="line"/>
      <point x="1146.144" y="1340.0" type="line"/>
      <point x="742.232" y="1340.0" type="line"/>
      <point x="742.232" y="1300.032" type="line"/>
      <point x="903.48" y="1248.76" type="line"/>
      <point x="903.48" y="280.808" type="line"/>
    </contour>
  </outline>
</glyph>
<glyph name="minus" format="2">
  <advance width="1000.0"/>
  <unicode hex="2212"/>
  <outline>
    <contour>
      <point x="130.28" y="490.72" type="line"/>
      <point x="130.28" y="381.28" type="line"/>
      <point x="869.72" y="381.28" type="line"/>
      <point x="869.72" y="490.72" type="line"/>
    </contour>
  </outline>
</glyph>
<glyph name="uni27E8" format="2">
  <advance width="1000.0"/>
  <unicode hex="27E8"/>
  <outline>
    <contour>
      <point x="280.664" y="638.4" type="line"/>
      <point x="812.568" y="1340.0" type="line"/>
      <point x="680.768" y="1340.0" type="line"/>
      <point x="182.888" y="679.24" type="line"/>
      <point x="182.888" y="659.76" type="line"/>
      <point x="680.768" y="0.0" type="line"/>
      <point x="812.568" y="0.0" type="line"/>
      <point x="279.512" y="702.752" type="line"/>
    </contour>
  </outline>
</glyph>
<glyph name="f_f" format="2">
  <advance width="1314.256"/>
  <unicode hex="FB00"/>
  <outline>
    <contour>
      <point x="569.672" y="0.0" type="line"/>
      <point x="569.672" y="39.12" type="line"/>
      <point x="426.23199999999997" y="93.48" type="line"/>
      <point x="426.23199999999997" y="1043.632" type="line" smooth="yes"/>
      <point x="426.23199999999997" y="1211.568"/>
      <point x="516.4639999999999" y="1301.704"/>
      <point x="655.24" y="1301.704" type="curve" smooth="yes"/>
      <point x="746.36" y="1301.704"/>
      <point x="820.208" y="1257.92"/>
      <point x="894.968" y="1160.616" type="curve"/>
      <point x="1026.528" y="1293.28" type="line"/>
      <point x="956.432" y="1360.792"/>
      <point x="863.616" y="1399.0"/>
      <point x="750.92" y="1399.0" type="curve" smooth="yes"/>
      <point x="452.648" y="1399.0"/>
      <point x="194.584" y="1222.04"/>
      <point x="194.584" y="860.864" type="curve" smooth="yes"/>
      <point x="194.584" y="90.088" type="line"/>
      <point x="62.088" y="39.12" type="line"/>
      <point x="62.088" y="0.0" type="line"/>
    </contour>
    <contour>
      <point x="1284.584" y="743.888" type="line"/>
      <point x="1304.28" y="860.48" type="line"/>
      <point x="306.888" y="860.48" type="line"/>
      <point x="209.432" y="869.808" type="line"/>
      <point x="23.312" y="795.664" type="line"/>
      <point x="23.312" y="756.608" type="line"/>
      <point x="194.584" y="713.104" type="line"/>
      <point x="231.04" y="743.888" type="line"/>
    </contour>
    <contour>
      <point x="1030.16" y="93.48" type="line"/>
      <point x="1030.16" y="1062.112" type="line" smooth="yes"/>
      <point x="1030.16" y="1249.056"/>
      <point x="1120.36" y="1319.032"/>
      <point x="1224.04" y="1319.032" type="curve" smooth="yes"/>
      <point x="1329.768" y="1319.032"/>
      <point x="1365.816" y="1203.288"/>
      <point x="1464.176" y="1203.288" type="curve" smooth="yes"/>
      <point x="1520.84" y="1203.288"/>
      <point x="1570.048" y="1245.8"/>
      <point x="1570.048" y="1308.28" type="curve" smooth="yes"/>
      <point x="1570.048" y="1371.728"/>
      <point x="1507.176" y="1423.24"/>
      <point x="1360.608" y="1423.24" type="curve" smooth="yes"/>
      <point x="1067.512" y="1423.24"/>
      <point x="798.512" y="1250.496"/>
      <point x="798.512" y="861.44" type="curve" smooth="yes"/>
      <point x="798.512" y="90.088" type="line"/>
      <point x="666.016" y="39.12" type="line"/>
      <point x="666.016" y="0.0" type="line"/>
      <point x="1183.352" y="0.0" type="line"/>
      <point x="1183.352" y="39.12" type="line"/>
    </contour>
  </outline>
</glyph>
<glyph name="cent.lf" format="2">
  <advance width="963.848"/>
  <outline>
    <contour>
      <point x="275.92" y="0.0" type="line"/>
      <point x="362.4" y="0.0" type="line"/>
      <point x="816.4" y="1340.0" type="line"/>
      <point x="729.92" y="1340.0" type="line"/>
    </contour>
    <contour>
      <point x="614.92" y="1118.36" type="curve" smooth="yes"/>
      <point x="286.752" y="1118.36"/>
      <point x="100.248" y="903.056"/>
      <point x="100.248" y="639.456" type="curve" smooth="yes"/>
      <point x="100.248" y="395.488"/>
      <point x="263.032" y="209.4"/>
      <point x="509.656" y="209.4" type="curve" smooth="yes"/>
      <point x="641.776" y="209.4"/>
      <point x="758.16" y="273.336"/>
      <point x="873.664" y="416.416" type="curve"/>
      <point x="841.608" y="456.984" type="line"/>
      <point x="771.368" y="401.528"/>
      <point x="704.336" y="376.888"/>
      <point x="625.4" y="376.888" type="curve" smooth="yes"/>
      <point x="439.12" y="376.888"/>
      <point x="320.752" y="507.08"/>
      <point x="320.752" y="747.896" type="curve" smooth="yes"/>
      <point x="320.752" y="937.056"/>
      <point x="412.432" y="1019.216"/>
      <point x="506.744" y="1019.216" type="curve" smooth="yes"/>
      <point x="595.84" y="1019.216"/>
      <point x="642.68" y="876.56"/>
      <point x="751.704" y="876.56" type="curve" smooth="yes"/>
      <point x="818.336" y="876.56"/>
      <point x="865.328" y="924.952"/>
      <point x="865.328" y="986.096" type="curve" smooth="yes"/>
      <point x="865.328" y="1061.608"/>
      <point x="775.112" y="1118.36"/>
    </contour>
  </outline>
</glyph>
<glyph name="colonmonetary.lf.1" format="2">
  <advance width="1126.448"/>
  <outline>
    <contour>
      <point x="648.016" y="1264.856" type="curve" smooth="yes"/>
      <point x="807.448" y="1264.856"/>
      <point x="833.976" y="1096.44"/>
      <point x="954.304" y="1096.44" type="curve" smooth="yes"/>
      <point x="1011.208" y="1096.44"/>
      <point x="1054.296" y="1136.528"/>
      <point x="1054.296" y="1195.672" type="curve" smooth="yes"/>
      <point x="1054.296" y="1282.696"/>
      <point x="957.816" y="1364.24"/>
      <point x="725.976" y="1364.24" type="curve" smooth="yes"/>
      <point x="333.864" y="1364.24"/>
      <point x="102.64" y="1053.256"/>
      <point x="102.64" y="638.664" type="curve" smooth="yes"/>
      <point x="102.64" y="243.704"/>
      <point x="304.904" y="-24.240000000000002"/>
      <point x="603.016" y="-24.240000000000002" type="curve" smooth="yes"/>
      <point x="767.64" y="-24.240000000000002"/>
      <point x="894.6" y="37.424"/>
      <point x="1048.168" y="240.848" type="curve"/>
      <point x="1011.84" y="282.904" type="line"/>
      <point x="903.424" y="202.176"/>
      <point x="806.728" y="171.208"/>
      <point x="710.336" y="171.208" type="curve" smooth="yes"/>
      <point x="462.176" y="171.208"/>
      <point x="323.01599999999996" y="361.632"/>
      <point x="323.01599999999996" y="750.392" type="curve" smooth="yes"/>
      <point x="323.01599999999996" y="1123.384"/>
      <point x="477.904" y="1264.856"/>
    </contour>
    <contour>
      <point x="685.488" y="1297.488" type="line"/>
      <point x="737.76" y="1535.0" type="line"/>
      <point x="652.432" y="1535.0" type="line"/>
      <point x="600.16" y="1297.488" type="line"/>
    </contour>
    <contour>
      <point x="382.584" y="137.912" type="line"/>
      <point x="308.856" y="-195.0" type="line"/>
      <point x="394.18399999999997" y="-195.0" type="line"/>
      <point x="467.912" y="137.912" type="line"/>
    </contour>
    <contour>
      <point x="881.696" y="1297.488" type="line"/>
      <point x="933.968" y="1535.0" type="line"/>
      <point x="848.64" y="1535.0" type="line"/>
      <point x="796.368" y="1297.488" type="line"/>
    </contour>
    <contour>
      <point x="569.0" y="92.984" type="line"/>
      <point x="505.064" y="-195.0" type="line"/>
      <point x="590.392" y="-195.0" type="line"/>
      <point x="654.328" y="92.984" type="line"/>
    </contour>
  </outline>
</glyph>
<glyph name="dollar.lf.1" format="2">
  <advance width="1048.192"/>
  <outline>
    <contour>
      <point x="454.216" y="-24.240000000000002" type="curve" smooth="yes"/>
      <point x="762.616" y="-24.240000000000002"/>
      <point x="962.672" y="129.632"/>
      <point x="962.672" y="405.864" type="curve" smooth="yes"/>
      <point x="962.672" y="597.192"/>
      <point x="860.376" y="730.608"/>
      <point x="588.104" y="800.432" type="curve" smooth="yes"/>
      <point x="315.832" y="870.256"/>
      <point x="267.984" y="947.656"/>
      <point x="267.984" y="1061.232" type="curve" smooth="yes"/>
      <point x="267.984" y="1190.696"/>
      <point x="368.904" y="1267.824"/>
      <point x="537.184" y="1267.824" type="curve" smooth="yes"/>
      <point x="716.168" y="1267.824"/>
      <point x="738.208" y="1087.768"/>
      <point x="853.872" y="1087.768" type="curve" smooth="yes"/>
      <point x="907.232" y="1087.768"/>
      <point x="951.472" y="1128.432"/>
      <point x="951.472" y="1188.88" type="curve" smooth="yes"/>
      <point x="951.472" y="1277.784"/>
      <point x="842.592" y="1364.24"/>
      <point x="592.624" y="1364.24" type="curve" smooth="yes"/>
      <point x="289.76800000000003" y="1364.24"/>
      <point x="104.584" y="1210.496"/>
      <point x="104.584" y="970.624" type="curve" smooth="yes"/>
      <point x="104.584" y="783.056"/>
      <point x="190.552" y="656.608"/>
      <point x="448.304" y="588.36" type="curve" smooth="yes"/>
      <point x="706.056" y="520.112"/>
      <point x="792.24" y="452.168"/>
      <point x="792.24" y="307.344" type="curve" smooth="yes"/>
      <point x="792.24" y="153.568"/>
      <point x="672.016" y="74.992"/>
      <point x="501.168" y="74.992" type="curve" smooth="yes"/>
      <point x="308.04" y="74.992"/>
      <point x="282.112" y="255.232"/>
      <point x="168.264" y="255.232" type="curve" smooth="yes"/>
      <point x="112.328" y="255.232"/>
      <point x="68.544" y="214.112"/>
      <point x="68.544" y="153.088" type="curve" smooth="yes"/>
      <point x="68.544" y="57.184"/>
      <point x="196.312" y="-24.240000000000002"/>
    </contour>
    <contour>
      <point x="480.72" y="1301.488" type="line"/>
      <point x="480.72" y="1535.0" type="line"/>
      <point x="396.544" y="1535.0" type="line"/>
      <point x="396.544" y="1301.488" type="line"/>
    </contour>
    <contour>
      <point x="669.44" y="1301.488" type="line"/>
      <point x="669.44" y="1535.0" type="line"/>
      <point x="585.264" y="1535.0" type="line"/>
      <point x="585.264" y="1301.488" type="line"/>
    </contour>
    <contour>
      <point x="396.544" y="30.631999999999998" type="line"/>
      <point x="396.544" y="-195.0" type="line"/>
      <point x="480.72" y="-195.0" type="line"/>
      <point x="480.72" y="30.631999999999998" type="line"/>
    </contour>
    <contour>
      <point x="585.264" y="30.631999999999998" type="line"/>
      <point x="585.264" y="-195.0" type="line"/>
      <point x="669.44" y="-195.0" type="line"/>
      <point x="669.44" y="30.631999999999998" type="line"/>
    </contour>
  </outline>
</glyph>
<glyph name="dong.lf" format="2">
  <advance width="1211.232"/>
  <outline>
    <contour>
      <point x="1122.32" y="-239.944" type="line"/>
      <point x="94.008" y="-239.944" type="line"/>
      <point x="94.008" y="-333.208" type="line"/>
      <point x="1122.32" y="-333.208" type="line"/>
    </contour>
    <contour>
      <point x="727.432" y="587.112" type="curve" smooth="yes"/>
      <point x="727.432" y="132.544" type="line"/>
      <point x="750.76" y="-21.936" type="line"/>
      <point x="778.24" y="-21.936" type="line"/>
      <point x="1081.44" y="48.544" type="line"/>
      <point x="1081.44" y="83.48" type="line"/>
      <point x="1033.808" y="97.112"/>
      <point x="983.712" y="123.688"/>
      <point x="955.624" y="154.2" type="curve"/>
      <point x="955.624" y="1196.944" type="line"/>
      <point x="969.712" y="1389.256" type="line"/>
      <point x="942.808" y="1389.256" type="line"/>
      <point x="592.984" y="1291.936" type="line"/>
      <point x="592.984" y="1257.976" type="line"/>
      <point x="657.736" y="1228.464"/>
      <point x="699.344" y="1203.768"/>
      <point x="727.432" y="1168.136" type="curve"/>
      <point x="727.432" y="757.032" type="line"/>
      <point x="865.672" y="788.712" type="line"/>
      <point x="748.344" y="841.984"/>
      <point x="664.224" y="863.408"/>
      <point x="564.592" y="863.408" type="curve" smooth="yes"/>
      <point x="318.23199999999997" y="863.408"/>
      <point x="85.336" y="689.952"/>
      <point x="85.336" y="376.448" type="curve" smooth="yes"/>
      <point x="85.336" y="140.12"/>
      <point x="213.336" y="-24.240000000000002"/>
      <point x="455.608" y="-24.240000000000002" type="curve" smooth="yes"/>
      <point x="541.672" y="-24.240000000000002"/>
      <point x="612.272" y="0.5760000000000001"/>
      <point x="776.192" y="102.248" type="curve"/>
      <point x="776.192" y="183.816" type="line"/>
      <point x="707.576" y="133.504"/>
      <point x="631.568" y="111.984"/>
      <point x="558.312" y="111.984" type="curve" smooth="yes"/>
      <point x="420.36" y="111.984"/>
      <point x="329.168" y="220.504"/>
      <point x="329.168" y="435.744" type="curve" smooth="yes"/>
      <point x="329.168" y="658.4639999999999"/>
      <point x="409.752" y="770.416"/>
      <point x="549.104" y="770.416" type="curve" smooth="yes"/>
      <point x="666.12" y="770.416"/>
      <point x="727.432" y="692.264"/>
    </contour>
    <contour>
      <point x="432.064" y="1002.48" type="line"/>
      <point x="1121.472" y="1002.48" type="line"/>
      <point x="1121.472" y="1102.528" type="line"/>
      <point x="432.064" y="1102.528" type="line"/>
    </contour>
  </outline>
</glyph>
<glyph name="franc.lf" format="2">
  <advance width="1204.504"/>
  <outline>
    <contour>
      <point x="1073.048" y="1400.448" type="line"/>
      <point x="951.296" y="1340.0" type="line"/>
      <point x="402.536" y="1340.0" type="line"/>
      <point x="402.536" y="1237.312" type="line"/>
      <point x="1025.408" y="1237.312" type="line"/>
      <point x="915.336" y="1264.88" type="line"/>
      <point x="1102.536" y="941.672" type="line"/>
      <point x="1150.048" y="954.792" type="line"/>
      <point x="1091.8319999999999" y="1400.448" type="line"/>
    </contour>
    <contour>
      <point x="889.712" y="582.0" type="line"/>
      <point x="110.216" y="582.0" type="line"/>
      <point x="110.216" y="488.736" type="line"/>
      <point x="889.712" y="488.736" type="line"/>
    </contour>
    <contour>
      <point x="889.712" y="857.264" type="line"/>
      <point x="110.216" y="857.264" type="line"/>
      <point x="110.216" y="764.0" type="line"/>
      <point x="889.712" y="764.0" type="line"/>
    </contour>
    <contour>
      <point x="134.248" y="1340.0" type="line"/>
      <point x="134.248" y="1300.032" type="line"/>
      <point x="303.608" y="1246.52" type="line"/>
      <point x="303.608" y="93.48" type="line"/>
      <point x="134.248" y="39.968" type="line"/>
      <point x="134.248" y="0.0" type="line"/>
      <point x="720.488" y="0.0" type="line"/>
      <point x="720.488" y="39.968" type="line"/>
      <point x="552.28" y="93.48" type="line"/>
      <point x="552.28" y="1340.0" type="line"/>
    </contour>
  </outline>
</glyph>
<glyph name="three.lf" format="2">
  <advance width="1046.936"/>
  <outline>
    <contour>
      <point x="304.264" y="626.464" type="line"/>
      <point x="371.968" y="645.224" type="line" smooth="yes"/>
      <point x="578.8270967741935" y="702.3989677419355"/>
      <point x="722.224" y="607.648"/>
      <point x="722.224" y="401.608" type="curve" smooth="yes"/>
      <point x="722.224" y="188.176"/>
      <point x="588.968" y="74.992"/>
      <point x="447.904" y="74.992" type="curve" smooth="yes"/>
      <point x="315.08" y="74.992"/>
      <point x="256.08" y="216.04"/>
      <point x="157.848" y="216.04" type="curve" smooth="yes"/>
      <point x="94.824" y="216.04"/>
      <point x="54.28" y="176.68"/>
      <point x="54.28" y="118.50399999999999" type="curve" smooth="yes"/>
      <point x="54.28" y="38.664"/>
      <point x="130.064" y="-24.240000000000002"/>
      <point x="326.984" y="-24.240000000000002" type="curve" smooth="yes"/>
      <point x="723.136" y="-24.240000000000002"/>
      <point x="971.656" y="190.144"/>
      <point x="971.656" y="446.688" type="curve" smooth="yes"/>
      <point x="971.656" y="672.656"/>
      <point x="800.032" y="798.688"/>
      <point x="526.288" y="765.872" type="curve"/>
      <point x="515.144" y="755.904" type="line"/>
      <point x="708.808" y="805.408"/>
      <point x="849.544" y="925.528"/>
      <point x="849.544" y="1088.576" type="curve" smooth="yes"/>
      <point x="849.544" y="1251.8901536291323"/>
      <point x="732.304" y="1364.24"/>
      <point x="518.92" y="1364.24" type="curve" smooth="yes"/>
      <point x="290.176" y="1364.24"/>
      <point x="144.4737382958129" y="1222.7751568916533"/>
      <point x="93.248" y="986.304" type="curve"/>
      <point x="170.568" y="964.464" type="line"/>
      <point x="213.00630573537805" y="1129.7505164028219"/>
      <point x="307.208" y="1199.056"/>
      <point x="443.0" y="1199.056" type="curve" smooth="yes"/>
      <point x="561.432" y="1199.056"/>
      <point x="630.04" y="1120.352"/>
      <point x="630.04" y="1015.104" type="curve" smooth="yes"/>
      <point x="630.04" y="891.976"/>
      <point x="553.368" y="796.848"/>
      <point x="276.752" y="710.936" type="curve"/>
    </contour>
  </outline>
</glyph>
<glyph name="uni0302_hookabovecomb.case" format="2">
  <anchor x="0.0" y="1340.0" name="_UCtop"/>
  <outline>
    <contour>
      <point x="20.055999999999997" y="1602.184" type="line"/>
      <point x="-20.055999999999997" y="1602.184" type="line"/>
      <point x="200.824" y="1476.0" type="line"/>
      <point x="309.744" y="1476.0" type="line"/>
      <point x="99.744" y="1716.0" type="line"/>
      <point x="-99.744" y="1716.0" type="line"/>
      <point x="-309.744" y="1476.0" type="line"/>
      <point x="-200.824" y="1476.0" type="line"/>
    </contour>
    <contour>
      <point x="259.896" y="1677.784" type="curve"/>
      <point x="266.2" y="1620.424" type="line"/>
      <point x="467.248" y="1643.696"/>
      <point x="511.672" y="1699.696"/>
      <point x="511.672" y="1780.24" type="curve" smooth="yes"/>
      <point x="511.672" y="1853.272"/>
      <point x="458.0" y="1917.24"/>
      <point x="215.776" y="1931.272" type="curve"/>
      <point x="189.656" y="1805.184" type="line"/>
      <point x="350.984" y="1794.728"/>
      <point x="375.2" y="1775.272"/>
      <point x="375.2" y="1742.12" type="curve" smooth="yes"/>
      <point x="375.2" y="1712.392"/>
      <point x="356.624" y="1693.36"/>
    </contour>
  </outline>
</glyph>
<glyph name="uni0302_hookabovecomb" format="2">
  <anchor x="0.0" y="860.48" name="_top"/>
  <outline>
    <contour>
      <point x="34.623999999999995" y="1216.968" type="line"/>
      <point x="-34.623999999999995" y="1216.968" type="line"/>
      <point x="210.576" y="1009.0" type="line"/>
      <point x="299.744" y="1009.0" type="line"/>
      <point x="94.144" y="1340.0" type="line"/>
      <point x="-94.144" y="1340.0" type="line"/>
      <point x="-299.744" y="1009.0" type="line"/>
      <point x="-210.576" y="1009.0" type="line"/>
    </contour>
    <contour>
      <point x="238.6" y="1275.448" type="curve"/>
      <point x="265.896" y="1205.88" type="line"/>
      <point x="475.928" y="1255.032"/>
      <point x="521.256" y="1325.4"/>
      <point x="521.256" y="1419.696" type="curve" smooth="yes"/>
      <point x="521.256" y="1510.848"/>
      <point x="464.168" y="1582.056"/>
      <point x="205.024" y="1605.24" type="curve"/>
      <point x="171.904" y="1457.368" type="line"/>
      <point x="353.784" y="1446.336"/>
      <point x="379.024" y="1415.576"/>
      <point x="379.024" y="1371.696" type="curve" smooth="yes"/>
      <point x="379.024" y="1331.544"/>
      <point x="354.024" y="1301.176"/>
    </contour>
  </outline>
</glyph>
<glyph name="uni0306_tildecomb.case" format="2">
  <anchor x="0.0" y="1340.0" name="_UCtop"/>
  <outline>
    <contour>
      <point x="0.0" y="1548.392" type="curve" smooth="yes"/>
      <point x="-115.968" y="1548.392"/>
      <point x="-171.304" y="1573.152"/>
      <point x="-195.696" y="1635.0" type="curve"/>
      <point x="-262.416" y="1635.0" type="line"/>
      <point x="-221.784" y="1481.552"/>
      <point x="-142.272" y="1428.0"/>
      <point x="0.0" y="1428.0" type="curve" smooth="yes"/>
      <point x="142.272" y="1428.0"/>
      <point x="221.784" y="1481.552"/>
      <point x="262.416" y="1635.0" type="curve"/>
      <point x="195.696" y="1635.0" type="line"/>
      <point x="171.304" y="1574.0"/>
      <point x="115.968" y="1548.392"/>
    </contour>
    <contour>
      <point x="-192.848" y="1670.0" type="line"/>
      <point x="-171.968" y="1713.76"/>
      <point x="-151.544" y="1728.336"/>
      <point x="-108.424" y="1728.336" type="curve" smooth="yes"/>
      <point x="-53.424" y="1728.336"/>
      <point x="20.544" y="1666.728"/>
      <point x="92.72" y="1666.728" type="curve" smooth="yes"/>
      <point x="172.024" y="1666.728"/>
      <point x="213.232" y="1713.216"/>
      <point x="263.568" y="1846.0" type="curve"/>
      <point x="192.848" y="1846.0" type="line"/>
      <point x="171.968" y="1802.24"/>
      <point x="151.544" y="1787.24"/>
      <point x="108.424" y="1787.24" type="curve" smooth="yes"/>
      <point x="53.424" y="1787.24"/>
      <point x="-22.848" y="1849.272"/>
      <point x="-92.72" y="1849.272" type="curve" smooth="yes"/>
      <point x="-172.024" y="1849.272"/>
      <point x="-213.232" y="1802.36"/>
      <point x="-263.568" y="1670.0" type="curve"/>
    </contour>
  </outline>
</glyph>
<glyph name="uni20A9.lf" format="2">
  <advance width="1463.992"/>
  <outline>
    <contour>
      <point x="1368.864" y="630.8" type="line"/>
      <point x="94.792" y="630.8" type="line"/>
      <point x="94.792" y="537.5360000000001" type="line"/>
      <point x="1368.864" y="537.5360000000001" type="line"/>
    </contour>
    <contour>
      <point x="1368.864" y="906.064" type="line"/>
      <point x="94.792" y="906.064" type="line"/>
      <point x="94.792" y="812.8" type="line"/>
      <point x="1368.864" y="812.8" type="line"/>
    </contour>
    <contour>
      <point x="725.072" y="1025.96" type="line"/>
      <point x="970.728" y="-11.52" type="line"/>
      <point x="1138.408" y="-11.52" type="line"/>
      <point x="1287.632" y="1261.728" type="line"/>
      <point x="1383.144" y="1298.336" type="line"/>
      <point x="1383.144" y="1340.0" type="line"/>
      <point x="1076.944" y="1340.0" type="line"/>
      <point x="1076.944" y="1298.336" type="line"/>
      <point x="1190.792" y="1263.0" type="line"/>
      <point x="1079.048" y="275.624" type="line"/>
      <point x="1127.296" y="291.176" type="line"/>
      <point x="853.808" y="1351.52" type="line"/>
      <point x="759.208" y="1351.52" type="line"/>
      <point x="464.552" y="233.48" type="line"/>
      <point x="529.448" y="286.48" type="line"/>
      <point x="408.92" y="1258.576" type="line"/>
      <point x="529.744" y="1298.336" type="line"/>
      <point x="529.744" y="1340.0" type="line"/>
      <point x="74.184" y="1340.0" type="line"/>
      <point x="74.184" y="1298.336" type="line"/>
      <point x="172.88" y="1256.0" type="line"/>
      <point x="338.464" y="-11.52" type="line"/>
      <point x="490.032" y="-11.52" type="line"/>
      <point x="763.072" y="1034.024" type="line"/>
    </contour>
  </outline>
</glyph>
<glyph name="uni20AD.lf" format="2">
  <advance width="1405.424"/>
  <outline>
    <contour>
      <point x="556.784" y="714.36" type="line"/>
      <point x="974.44" y="0.0" type="line"/>
      <point x="1352.24" y="0.0" type="line"/>
      <point x="1352.24" y="39.968" type="line"/>
      <point x="1193.9279999999999" y="90.968" type="line"/>
      <point x="801.336" y="749.296" type="line"/>
      <point x="785.0319999999999" y="664.616" type="line"/>
      <point x="1167.304" y="1254.0" type="line"/>
      <point x="1318.064" y="1302.576" type="line"/>
      <point x="1318.064" y="1340.0" type="line"/>
      <point x="904.824" y="1340.0" type="line"/>
      <point x="904.824" y="1302.576" type="line"/>
      <point x="1058.4" y="1255.0" type="line"/>
      <point x="699.16" y="714.36" type="line"/>
    </contour>
    <contour>
      <point x="1090.128" y="757.024" type="line"/>
      <point x="100.152" y="757.024" type="line"/>
      <point x="100.152" y="663.76" type="line"/>
      <point x="1090.128" y="663.76" type="line"/>
    </contour>
    <contour>
      <point x="529.128" y="1246.52" type="line"/>
      <point x="697.336" y="1300.032" type="line"/>
      <point x="697.336" y="1340.0" type="line"/>
      <point x="111.096" y="1340.0" type="line"/>
      <point x="111.096" y="1300.032" type="line"/>
      <point x="280.456" y="1246.52" type="line"/>
      <point x="280.456" y="93.48" type="line"/>
      <point x="111.096" y="39.968" type="line"/>
      <point x="111.096" y="0.0" type="line"/>
      <point x="697.336" y="0.0" type="line"/>
      <point x="697.336" y="39.968" type="line"/>
      <point x="529.128" y="93.48" type="line"/>
    </contour>
  </outline>
</glyph>
<glyph name="zero.lf" format="2">
  <advance width="1253.648"/>
  <outline>
    <contour>
      <point x="633.64" y="79.112" type="curve" smooth="yes"/>
      <point x="464.06089927543627" y="79.112"/>
      <point x="353.376" y="279.92"/>
      <point x="353.376" y="707.632" type="curve" smooth="yes"/>
      <point x="353.376" y="1062.152"/>
      <point x="449.611341903799" y="1260.888"/>
      <point x="620.008" y="1260.888" type="curve" smooth="yes"/>
      <point x="789.0177599324403" y="1260.888"/>
      <point x="899.696" y="1060.08"/>
      <point x="899.696" y="632.368" type="curve" smooth="yes"/>
      <point x="899.696" y="277.848"/>
      <point x="803.4674009997826" y="79.112"/>
    </contour>
    <contour>
      <point x="626.824" y="1364.24" type="curve" smooth="yes"/>
      <point x="301.816" y="1364.24"/>
      <point x="90.70400000000001" y="1089.328"/>
      <point x="90.70400000000001" y="668.0" type="curve" smooth="yes"/>
      <point x="90.70400000000001" y="248.096"/>
      <point x="301.816" y="-24.240000000000002"/>
      <point x="626.824" y="-24.240000000000002" type="curve" smooth="yes"/>
      <point x="953.56" y="-24.240000000000002"/>
      <point x="1162.944" y="250.672"/>
      <point x="1162.944" y="672.0" type="curve" smooth="yes"/>
      <point x="1162.944" y="1091.904"/>
      <point x="953.56" y="1364.24"/>
    </contour>
  </outline>
</glyph>
